# xmcd CD database file
#
# Track frame offsets:
#	183
#	20278
#	72818
#	89798
#	95235
#	119310
#	134945
#	160945
#	171060
#	180683
#	258750
#
# Disc length: 3610 seconds
#
# Revision: 0
# Processed by: cddbd v1.5.1PL0 Copyright (c) Steve Scherf et al.
# Submitted via: CDex 1.51
#
DISCID=9b0e180b
DTITLE=Dynamic Evolving Impulse - IDE4 - Casting off Deadwood
DYEAR=1996
DGENRE=New Age
TTITLE0=Casting off Deadwood
TTITLE1=Inner Echo, Harmonization
TTITLE2=Casting off Deadwood Again
TTITLE3=Equilibrium
TTITLE4=Sagittarius 1
TTITLE5=Sagittarius 2
TTITLE6=Fire of the Earth
TTITLE7=Throat and Heart
TTITLE8=Ointment
TTITLE9=Taste of Paradise
TTITLE10=Relaxation
EXTD=YEAR: 1996
EXTT0=
EXTT1=
EXTT2=
EXTT3=
EXTT4=
EXTT5=
EXTT6=
EXTT7=
EXTT8=
EXTT9=
EXTT10=
PLAYORDER=
